<?xml version="1.0" standalone="no"?><!DOCTYPE svg PUBLIC "-//W3C//DTD SVG 1.1//EN" "http://www.w3.org/Graphics/SVG/1.1/DTD/svg11.dtd"><svg t="1690006268338" class="icon" viewBox="0 0 1024 1024" version="1.1" xmlns="http://www.w3.org/2000/svg" p-id="2287" xmlns:xlink="http://www.w3.org/1999/xlink" width="200" height="200"><path d="M904.448 625.728 119.616 625.728c-23.68 0-44.736 14.656-52.48 36.48C65.024 668.032 64 674.048 64 680c0 16.32 7.616 32.192 21.184 42.688l293.248 225.728c24.128 18.56 59.008 14.464 78.016-9.088 18.944-23.552 14.848-57.664-9.28-76.224L288 739.456l616 0c30.72 0 56-29.44 56-59.456C960 649.984 935.168 625.728 904.448 625.728zM119.552 398.272l784.832 0c23.68 0 44.736-14.656 52.48-36.48C958.976 355.968 960 349.952 960 344c0-16.32-7.616-32.192-21.184-42.688l-293.248-225.728c-24.128-18.56-59.008-14.464-78.016 9.088C548.608 108.224 552.64 142.4 576.832 160.96L736 284.544 120 284.544C89.28 284.544 64 313.984 64 344 64 374.016 88.832 398.272 119.552 398.272z" p-id="2288"></path></svg>