<?xml version="1.0" standalone="no"?><!DOCTYPE svg PUBLIC "-//W3C//DTD SVG 1.1//EN" "http://www.w3.org/Graphics/SVG/1.1/DTD/svg11.dtd"><svg t="1690545843042" class="icon" viewBox="0 0 1024 1024" version="1.1" xmlns="http://www.w3.org/2000/svg" p-id="2349" xmlns:xlink="http://www.w3.org/1999/xlink" width="200" height="200"><path d="M512 512m-512 0a512 512 0 1 0 1024 0 512 512 0 1 0-1024 0Z" fill="#1B92FF" p-id="2350"></path><path d="M438.528 698.1376c-7.68 0-15.2832-2.816-21.12-8.5248l-175.5136-171.264a28.672 28.672 0 0 1 0-41.216 30.3616 30.3616 0 0 1 42.24 0l154.368 150.656L739.584 334.08a30.3616 30.3616 0 0 1 42.24 0 28.6208 28.6208 0 0 1 0 41.1904l-322.1504 314.368a30.1312 30.1312 0 0 1-21.12 8.4992z" fill="#FFFFFF" p-id="2351"></path></svg>